<svg id="Group_21" data-name="Group 21" xmlns="http://www.w3.org/2000/svg" width="60.316" height="64.656" viewBox="0 0 60.316 64.656">
  <path id="Path_214" data-name="Path 214" d="M71.011,84.875l-4.908-9.3a6.115,6.115,0,0,0-8.224-2.583l-22.6,11.883A6.115,6.115,0,0,0,32.691,93.1l4.908,9.3a6.115,6.115,0,0,0,8.224,2.583l1.464-.775s4.133,7.965,5.769,10.979,3.66,2.368,5.6,1.507a37.94,37.94,0,0,0,4.736-2.8L55.554,99.9l12.917-6.76A6.2,6.2,0,0,0,71.011,84.875Z" transform="translate(-32.004 -52.758)" fill="#4b73b1"/>
  <path id="Path_215" data-name="Path 215" d="M62.979,134a37.939,37.939,0,0,0,4.736-2.8L59.879,117.21l9.3-4.865L63.41,102.7,39.6,115.315l2.325,4.435a6.115,6.115,0,0,0,8.224,2.583l1.464-.775s4.133,7.965,5.769,10.979C58.975,135.508,61.042,134.862,62.979,134Z" transform="translate(-36.33 -70.067)" fill="#365493"/>
  <path id="Path_216" data-name="Path 216" d="M68.1,58.837,79.165,78.772l27.383-5.167L87.905,38.3Z" transform="translate(-52.559 -33.395)" fill="#fff"/>
  <circle id="Ellipse_3" data-name="Ellipse 3" cx="4.607" cy="4.607" r="4.607" transform="translate(45.249 15.497)" fill="#fff"/>
  <path id="Path_217" data-name="Path 217" d="M131.637,67.936l-19.418-36.9a1.789,1.789,0,0,1,.775-2.454l2.756-1.464a1.789,1.789,0,0,1,2.454.775l19.418,36.9a1.789,1.789,0,0,1-.775,2.454l-2.756,1.464A1.811,1.811,0,0,1,131.637,67.936Z" transform="translate(-77.561 -26.907)" fill="#5989c4"/>
  <path id="Path_218" data-name="Path 218" d="M86.682,103.2l27.082-5.081L104.851,81.2,81.3,93.514Z" transform="translate(-60.076 -57.824)" fill="#e7e9ea"/>
  <path id="Path_219" data-name="Path 219" d="M147.911,95.755l2.756-1.464a1.811,1.811,0,0,0,.775-2.454L142.271,74.4,136.2,77.414l9.257,17.61A1.81,1.81,0,0,0,147.911,95.755Z" transform="translate(-91.338 -53.952)" fill="#4268ad"/>
</svg>
