<svg width="0" height="0" class="hidden">
  <symbol xmlns="http://www.w3.org/2000/svg" viewBox="0 0 32 32" id="facebook">
    <title>facebook</title>
    <path d="M19 6h5V0h-5c-3.86 0-7 3.14-7 7v3H8v6h4v16h6V16h5l1-6h-6V7c0-.542.458-1 1-1z"></path>
  </symbol>
  <symbol xmlns="http://www.w3.org/2000/svg" viewBox="0 0 32 32" id="instagram">
    <title>instagram</title>
    <path d="M16 2.881c4.275 0 4.781.019 6.462.094 1.563.069 2.406.331 2.969.55a4.952 4.952 0 0 1 1.837 1.194 5.015 5.015 0 0 1 1.2 1.838c.219.563.481 1.412.55 2.969.075 1.688.094 2.194.094 6.463s-.019 4.781-.094 6.463c-.069 1.563-.331 2.406-.55 2.969a4.94 4.94 0 0 1-1.194 1.837 5.02 5.02 0 0 1-1.837 1.2c-.563.219-1.413.481-2.969.55-1.688.075-2.194.094-6.463.094s-4.781-.019-6.463-.094c-1.563-.069-2.406-.331-2.969-.55a4.952 4.952 0 0 1-1.838-1.194 5.02 5.02 0 0 1-1.2-1.837c-.219-.563-.481-1.413-.55-2.969-.075-1.688-.094-2.194-.094-6.463s.019-4.781.094-6.463c.069-1.563.331-2.406.55-2.969a4.964 4.964 0 0 1 1.194-1.838 5.015 5.015 0 0 1 1.838-1.2c.563-.219 1.412-.481 2.969-.55 1.681-.075 2.188-.094 6.463-.094zM16 0c-4.344 0-4.887.019-6.594.094-1.7.075-2.869.35-3.881.744-1.056.412-1.95.956-2.837 1.85a7.833 7.833 0 0 0-1.85 2.831C.444 6.538.169 7.7.094 9.4.019 11.113 0 11.656 0 16s.019 4.887.094 6.594c.075 1.7.35 2.869.744 3.881.413 1.056.956 1.95 1.85 2.837a7.82 7.82 0 0 0 2.831 1.844c1.019.394 2.181.669 3.881.744 1.706.075 2.25.094 6.594.094s4.888-.019 6.594-.094c1.7-.075 2.869-.35 3.881-.744 1.05-.406 1.944-.956 2.831-1.844s1.438-1.781 1.844-2.831c.394-1.019.669-2.181.744-3.881.075-1.706.094-2.25.094-6.594s-.019-4.887-.094-6.594c-.075-1.7-.35-2.869-.744-3.881a7.506 7.506 0 0 0-1.831-2.844A7.82 7.82 0 0 0 26.482.843C25.463.449 24.301.174 22.601.099c-1.712-.081-2.256-.1-6.6-.1z"></path>
    <path d="M16 7.781c-4.537 0-8.219 3.681-8.219 8.219s3.681 8.219 8.219 8.219 8.219-3.681 8.219-8.219A8.221 8.221 0 0 0 16 7.781zm0 13.55a5.331 5.331 0 1 1 0-10.663 5.331 5.331 0 0 1 0 10.663zM26.462 7.456a1.919 1.919 0 1 1-3.838 0 1.919 1.919 0 0 1 3.838 0z"></path>
  </symbol>
  <symbol xmlns="http://www.w3.org/2000/svg" viewBox="0 0 32 32" id="linkedin">
    <title>linkedin</title>
    <path d="M29 0H3C1.35 0 0 1.35 0 3v26c0 1.65 1.35 3 3 3h26c1.65 0 3-1.35 3-3V3c0-1.65-1.35-3-3-3zM12 26H8V12h4v14zm-2-16c-1.106 0-2-.894-2-2s.894-2 2-2c1.106 0 2 .894 2 2s-.894 2-2 2zm16 16h-4v-8c0-1.106-.894-2-2-2s-2 .894-2 2v8h-4V12h4v2.481C18.825 13.35 20.087 12 21.5 12c2.488 0 4.5 2.238 4.5 5v9z"></path>
  </symbol>
  <symbol xmlns="http://www.w3.org/2000/svg" viewBox="0 0 60.316 64.656" id="offer-icon--1">
    <path d="M39.007 32.117l-4.908-9.3a6.115 6.115 0 0 0-8.224-2.583l-22.6 11.883a6.115 6.115 0 0 0-2.588 8.225l4.908 9.3a6.115 6.115 0 0 0 8.224 2.583l1.464-.775s4.133 7.965 5.769 10.979 3.66 2.368 5.6 1.507a37.94 37.94 0 0 0 4.736-2.8L23.55 47.142l12.917-6.76a6.2 6.2 0 0 0 2.54-8.265z"
      fill="#4b73b1"></path>
    <path d="M26.649 63.933a37.939 37.939 0 0 0 4.736-2.8l-7.836-13.99 9.3-4.865-5.769-9.645L3.27 45.248l2.325 4.435a6.115 6.115 0 0 0 8.224 2.583l1.464-.775s4.133 7.965 5.769 10.979c1.593 2.971 3.66 2.325 5.597 1.463z" fill="#365493"></path>
    <path d="M15.541 25.442l11.065 19.935 27.383-5.167L35.346 4.905z" fill="#fff"></path>
    <circle cx="4.607" cy="4.607" r="4.607" transform="translate(45.249 15.497)" fill="#fff"></circle>
    <path d="M54.076 41.029l-19.418-36.9a1.789 1.789 0 0 1 .775-2.454L38.189.211a1.789 1.789 0 0 1 2.454.775l19.418 36.9a1.789 1.789 0 0 1-.775 2.454l-2.756 1.464a1.811 1.811 0 0 1-2.454-.775z" fill="#5989c4"></path>
    <path d="M26.606 45.376l27.082-5.081-8.913-16.919L21.224 35.69z" fill="#e7e9ea"></path>
    <path d="M56.573 41.803l2.756-1.464a1.811 1.811 0 0 0 .775-2.454l-9.171-17.437-6.071 3.014 9.257 17.61a1.81 1.81 0 0 0 2.454.731z" fill="#4268ad"></path>
  </symbol>
  <symbol version="1" viewBox="0 0 110 110" xmlns="http://www.w3.org/2000/svg" id="offer-icon--2">
    <path fill="#fff" d="M37 27h50v60H37z"></path>
    <path d="M65.724 73a8 8 0 0 0 8 8c4.418 0 8.416-3.601 8-8-.423-4.476-3.893-8.042-8-8-4.418.046-8 3.582-8 8z" fill="#fbe158"></path>
    <path d="M65.724 73c0 4.42 3.58 8 8 8a8 8 0 0 0 7.42-5l-14.78-6.153a8.005 8.005 0 0 0-.64 3.153z" fill="#059bbf"></path>
    <path d="M65.712 73.003a8 8 0 0 0 3.667 6.727l4.327-6.82-7.353-3.06a7.991 7.991 0 0 0-.641 3.153z" fill="#4ac3af"></path>
    <path d="M66.364 69.847l7.36 3.067V65c-3.3 0-6.133 2-7.36 4.847z" fill="#fa5655"></path>
    <path fill="#4ac3af" d="M77 40h4v18h-4zm-7.288 8h4v10h-4z"></path>
    <g fill="#cfd3d4">
      <circle cx="60.333" cy="68.167" r="1.5"></circle>
      <path d="M46.712 67.667h10v1h-10z"></path>
    </g>
    <g fill="#cfd3d4">
      <circle cx="60.333" cy="73.333" r="1.5"></circle>
      <path d="M46.712 72.833h10v1h-10z"></path>
    </g>
    <g fill="#cfd3d4">
      <circle cx="60.333" cy="78.5" r="1.5"></circle>
      <path d="M46.712 78h10v1h-10z"></path>
    </g>
    <path d="M39.742 58.021L28.944 68.819a3.441 3.441 0 1 1-4.867-4.867L34.9 53.131a14.472 14.472 0 0 0 4.842 4.89z" fill="#84462d"></path>
    <path d="M36.992 55.826L24.041 68.777a3.439 3.439 0 0 1 .03-4.824L34.9 53.125a14.773 14.773 0 0 0 2.092 2.701z" fill="#9c6144"></path>
    <path d="M47.4 60.1c-7.995 0-14.5-6.505-14.5-14.5s6.505-14.5 14.5-14.5 14.5 6.505 14.5 14.5-6.504 14.5-14.5 14.5z" fill="#fff"></path>
    <path d="M47.4 31.088c8.012 0 14.512 6.5 14.512 14.512s-6.5 14.512-14.512 14.512c-8.041 0-14.512-6.561-14.512-14.512 0-8.012 6.5-14.512 14.512-14.512m0-1.988c-9.098 0-16.5 7.402-16.5 16.5s7.402 16.5 16.5 16.5 16.5-7.402 16.5-16.5-7.401-16.5-16.5-16.5z"
      fill="#cfd3d4"></path>
    <circle cx="47.4" cy="45.6" r="11.558" fill="#6fdaf1"></circle>
    <path d="M47.4 34.042c-6.383 0-11.558 5.175-11.558 11.558 0 3.158 1.27 6.018 3.323 8.104l16.339-16.339a11.511 11.511 0 0 0-8.104-3.323z" fill="#9ce5f4"></path>
  </symbol>
  <symbol viewBox="0 0 500 500" xmlns="http://www.w3.org/2000/svg" id="offer-icon--3">
    <path d="M307.747 430.261H127.394c27.085-3.315 47.44-26.315 47.44-53.601v-52.988h85.473v52.988c0 27.286 20.356 50.286 47.44 53.601z" fill="#E0DEDE"></path>
    <path d="M383.492 340.766H38.576c-12.493 0-22.621-10.128-22.621-22.621V79.818c0-12.493 10.128-22.621 22.621-22.621h344.916c12.493 0 22.621 10.128 22.621 22.621v238.326c.001 12.494-10.127 22.622-22.621 22.622zm-14.205 101.562H60.826a5.654 5.654 0 0 1-5.654-5.654v-.759a5.654 5.654 0 0 1 5.654-5.654h308.461a5.654 5.654 0 0 1 5.654 5.654v.759a5.654 5.654 0 0 1-5.654 5.654z"
      fill="#E8E6E6"></path>
    <path d="M16 80.726V295h391V80.726c0-.705-.908-1.726-.944-2.726H16.012c-.035 1-.012 2.021-.012 2.726z" fill="#4384EC"></path>
    <path d="M16 80.726v213.992l390.562-214.04c0-.705-.47-1.678-.505-2.678H16.012c-.035 1-.012 2.021-.012 2.726z" fill="#2666CE"></path>
    <path fill="#D3CDCD" d="M174.834 340.766h85.473v17.428h-85.473z"></path>
    <path d="M407 295v-72H281.26c-6.305 0-11.26 5.215-11.26 11.52V295h137z" fill="#2666CE"></path>
    <path d="M270 295v46h111.975C395.306 341 407 329.958 407 316.626V295H270zm17 128.066c-7-3.959-13-9.298-17-15.594V430h17v-6.934z" fill="#D3CDCD"></path>
    <path fill="#E0DEDE" d="M269.974 430.24h22.322v12.088h-22.322z"></path>
    <path d="M426.915 442.328H291.578c-5.909 0-10.699-4.79-10.699-10.699V233.802c0-5.909 4.79-10.699 10.699-10.699h135.337c5.909 0 10.699 4.79 10.699 10.699v197.827c0 5.909-4.79 10.699-10.699 10.699z" fill="#D3CDCD"></path>
    <path fill="#4384EC" d="M280.879 241.977h156.735v170.122H280.879z"></path>
    <path fill="#2666CE" d="M280.879 412.099V241.977h156.735z"></path>
    <path d="M366.762 430.261h-15.03a3.521 3.521 0 0 1-3.521-3.521v-.473a3.521 3.521 0 0 1 3.521-3.521h15.03a3.521 3.521 0 0 1 3.521 3.521v.473a3.522 3.522 0 0 1-3.521 3.521z" fill="#E8E6E6"></path>
    <path d="M406.619 412.427v-73.808c0-6.305 5.112-11.417 11.417-11.417h39.158c6.305 0 11.417 5.112 11.417 11.417v73.808h-61.992z" fill="#1D5EBC"></path>
    <path d="M407 430.911c0 6.305 4.73 11.089 11.036 11.089h39.157c3.822 0 6.807-1.558 8.807-4.442V412h-59v18.911z" fill="#C4BCBC"></path>
    <path d="M468.076 442.328h-40.593c-5.909 0-10.699-4.79-10.699-10.699v-93.728c0-5.909 4.79-10.699 10.699-10.699h40.593c5.909 0 10.699 4.79 10.699 10.699v93.728c0 5.909-4.79 10.699-10.699 10.699z" fill="#E8E6E6"></path>
    <path fill="#4384EC" d="M416.783 337.114h61.992v89.511h-61.992z"></path>
    <path fill="#2666CE" d="M416.783 426.625v-89.511h61.992z"></path>
    <path d="M450.678 437.775h-5.797a3.521 3.521 0 0 1-3.521-3.521v-.473a3.521 3.521 0 0 1 3.521-3.521h5.797a3.521 3.521 0 0 1 3.521 3.521v.473a3.522 3.522 0 0 1-3.521 3.521z" fill="#FFF"></path>
  </symbol>
  <symbol version="1" viewBox="0 0 110 110" xmlns="http://www.w3.org/2000/svg" id="offer-icon--4">
    <path d="M87 87H23v-.04A3.96 3.96 0 0 1 26.96 83h56.08A3.96 3.96 0 0 1 87 86.96V87z" fill="#e2e4e5"></path>
    <path fill="#fff" d="M27 47h56v36H27z"></path>
    <path d="M32.143 47c0 2.209-2.047 4-4.571 4S23 49.209 23 47h9.143z" fill="#df2c2c"></path>
    <path d="M41.286 47c0 2.209-2.047 4-4.571 4s-4.571-1.791-4.571-4h9.142z" fill="#cfd3d4"></path>
    <path d="M50.429 47c0 2.209-2.047 4-4.571 4s-4.571-1.791-4.571-4h9.142z" fill="#df2c2c"></path>
    <path d="M59.571 47c0 2.209-2.047 4-4.571 4s-4.571-1.791-4.571-4h9.142zm18.286 0c0 2.209-2.047 4-4.571 4-2.525 0-4.571-1.791-4.571-4h9.142z" fill="#cfd3d4"></path>
    <path d="M68.714 47c0 2.209-2.047 4-4.571 4-2.525 0-4.571-1.791-4.571-4h9.142zM87 47c0 2.209-2.047 4-4.571 4-2.525 0-4.571-1.791-4.571-4H87z" fill="#df2c2c"></path>
    <path fill="#fa5655" d="M23 47h9.143l8-20h-8z"></path>
    <path fill="#fff" d="M32.143 47h9.143L47 27h-6.857z"></path>
    <path fill="#fa5655" d="M41.286 47h9.143l3.428-20H47z"></path>
    <path fill="#fff" d="M50.429 47h9.142V27h-5.714z"></path>
    <path fill="#fa5655" d="M87 47h-9.143l-5.714-20H79z"></path>
    <path fill="#fff" d="M77.857 47h-9.143l-3.428-20h6.857z"></path>
    <path fill="#fa5655" d="M68.714 47h-9.143V27h5.715z"></path>
    <path fill="#6fdaf1" d="M31 55h28v16H31z"></path>
    <path fill="#40c9e7" d="M59 71H31l28-16zm6-16h14v13H65zm0 16h14v12H65z"></path>
    <path d="M57.978 76c.26-3.258-3.405-5.625-7.407-5.625-2.324 0-4.396.764-5.759 1.959-.619-1.182-1.646-1.959-2.812-1.959-1.093 0-2.055.692-2.683 1.75-.775-1.918-2.607-3.268-4.746-3.268-2.5 0-4.58 1.845-5.042 4.288-.358-.31-.784-.493-1.243-.493-1.355 0-2.406 1.54-2.262 3.348h31.954z"
      fill="#0d9681"></path>
    <path fill="#9c6144" d="M26 76h32v7H26z"></path>
    <path fill="#af7653" d="M26 76h32v2H26z"></path>
  </symbol>
  <symbol xmlns="http://www.w3.org/2000/svg" viewBox="0 0 32 32" id="twitter">
    <title>twitter</title>
    <path d="M32 7.075a12.941 12.941 0 0 1-3.769 1.031 6.601 6.601 0 0 0 2.887-3.631 13.21 13.21 0 0 1-4.169 1.594A6.565 6.565 0 0 0 22.155 4a6.563 6.563 0 0 0-6.563 6.563c0 .512.056 1.012.169 1.494A18.635 18.635 0 0 1 2.23 5.195a6.56 6.56 0 0 0-.887 3.3 6.557 6.557 0 0 0 2.919 5.463 6.565 6.565 0 0 1-2.975-.819v.081a6.565 6.565 0 0 0 5.269 6.437 6.574 6.574 0 0 1-2.968.112 6.588 6.588 0 0 0 6.131 4.563 13.17 13.17 0 0 1-9.725 2.719 18.568 18.568 0 0 0 10.069 2.95c12.075 0 18.681-10.006 18.681-18.681 0-.287-.006-.569-.019-.85A13.216 13.216 0 0 0 32 7.076z"></path>
  </symbol>
  <symbol xmlns="http://www.w3.org/2000/svg" viewBox="0 0 32 32" id="arrow">
    <title>arrow-right2</title>
    <path d="M19.414 27.414l10-10a2 2 0 0 0 0-2.828l-10-10a2 2 0 1 0-2.828 2.828L23.172 14H4a2 2 0 1 0 0 4h19.172l-6.586 6.586c-.39.39-.586.902-.586 1.414s.195 1.024.586 1.414a2 2 0 0 0 2.828 0z"></path>
  </symbol>
    <symbol xmlns="http://www.w3.org/2000/svg" viewBox="0 0 25 18" id="check">
    <path d="M22.694 0L7.322 13.846 2.306 9.331 0 11.404l7.322 6.6L25 2.077z" fill="#2ecc71"></path>
  </symbol>
  <symbol xmlns="http://www.w3.org/2000/svg" viewBox="0 0 20 20" id="delete_cross">
    <path d="M15.204.822l-5.2 5.205-5.2-5.205A2.81 2.81 0 0 0 .831 4.795L6.031 10l-5.2 5.205a2.809 2.809 0 0 0 3.964 3.97l5.2-5.205 5.2 5.205a2.809 2.809 0 0 0 4.8-1.984 2.78 2.78 0 0 0-.823-1.984l-5.2-5.211 5.2-5.205A2.81 2.81 0 0 0 15.199.818z" fill="#e74c3c"></path>
  </symbol>
  
</svg>